# xmcd
#
# Track frame offsets:
#	182
#	43000
#	60260
#	99092
#	130255
#	150505
#	167975
#	182017
#
# Disc length: 2679
#
# Revision: 3
# Processed by: cddbd v1.5.1PL0 Copyright (c) Steve Scherf et al.
# Submitted via: CDex 1.51
# Normalized: r2:DSETVAR1,TDELIM( - )
#
DISCID=5a0a7508
DTITLE=Various Artist - Intimate Ballads - The Art Of Jazz
DYEAR=1994
DGENRE=Jazz
TTITLE0=Dexter Gordon - Body and Soul
TTITLE1=Sonny Stitt - Stardust
TTITLE2=Dollar Brand - Medley (Mood Indigo - Don't Get Around Much Anymore - Take The 'A' Train)
TTITLE3=Willie Wilson - Time After Time
TTITLE4=Ben Webster - Nancy With The Laughing Face
TTITLE5=Stephane Grappelli and Earl Hines - Over The Rainbow
TTITLE6=Oscar Pettiford - Willow Weep For Me
TTITLE7=Bud Powell - My Old Flame
EXTD=YEAR: 1994
EXTT0=
EXTT1=
EXTT2=
EXTT3=
EXTT4=
EXTT5=
EXTT6=
EXTT7=
PLAYORDER=
